<?xml version="1.0" encoding="utf-8"?>
<svg version="1.1" id="Understanding" xmlns="http://www.w3.org/2000/svg" xmlns:xlink="http://www.w3.org/1999/xlink" x="0px"
	 y="0px" viewBox="0 0 590.2 160.9" style="enable-background:new 0 0 590.2 160.9;" xml:space="preserve">
<style type="text/css">
	.st0{fill:#8F8F89;}
	.st1{fill:#9F2030;}
	.st2{fill:#343831;}
</style>
<g>
	<path class="st0" d="M24.8,148.6c-10.4,0-12.5-5.8-12.5-11.7v-22.1h4.5v21.8c0,4.6,1.5,8.3,8.2,8.3c5.8,0,8.5-2.4,8.5-9.1v-20.9
		h4.4v20.6C38.1,144.1,33.5,148.6,24.8,148.6z"/>
	<path class="st0" d="M63.4,148.1v-15.8c0-3.5-0.9-5.5-4.2-5.5c-4,0-7,4.1-7,9.6v11.7h-4.4v-24.5H52c0,1.5-0.1,3.7-0.4,5.2h0.1
		c1.4-3.4,4.4-5.6,8.6-5.6c5.6,0,7.4,3.5,7.4,7.8v17.1H63.4z"/>
	<path class="st0" d="M92.2,148.1c0-1.4,0.1-3.6,0.4-5l-0.1,0c-1.4,3.3-4.4,5.5-8.2,5.5c-6,0-9-4.4-9-11.6c0-8.6,4.9-13.8,12.7-13.8
		c1.3,0,2.7,0.1,4.1,0.2v-11.4h4.4v36H92.2z M92,127.3c-1.5-0.3-3-0.5-4.3-0.5c-4.7,0-7.8,2.8-7.8,9.9c0,5.3,1.7,8.3,5.4,8.3
		c4.4,0,6.7-5.2,6.7-9.5V127.3z"/>
	<path class="st0" d="M124.6,136h-16c-0.1,6.1,2.4,9,7.7,9c2.4,0,4.8-0.5,7-1.4l0.6,3.5c-2.5,1-5.4,1.5-8.5,1.5
		c-7.5,0-11.5-3.9-11.5-12.6c0-7.3,4.1-12.8,11.1-12.8c6.9,0,9.7,4.6,9.7,10.1C124.7,133.8,124.7,135,124.6,136z M114.7,126.5
		c-3.2,0-5.5,2.3-6.1,6.3h11.6C120.3,128.8,118.2,126.5,114.7,126.5z"/>
	<path class="st0" d="M144.5,127.5c-5.2-0.9-7.7,2.9-7.7,10.7v9.9h-4.4v-24.5h4.3c0,1.5-0.1,3.8-0.5,5.8h0.1c1-3.4,3.6-6.8,8.4-6.3
		L144.5,127.5z"/>
	<path class="st0" d="M155.1,148.5c-1.9,0-3.9-0.2-5.4-0.6l0.4-3.9c1.6,0.6,3.6,1,5.4,1c3.2,0,5.3-1.4,5.3-3.8
		c0-5.5-11.4-2.1-11.4-10.7c0-4.2,3.3-7.4,9.8-7.4c1.5,0,3.3,0.2,4.7,0.5l-0.3,3.7c-1.4-0.4-3.2-0.7-4.8-0.7c-3.3,0-4.8,1.4-4.8,3.5
		c0,5.4,11.5,2.3,11.5,10.7C165.5,145.2,161.5,148.5,155.1,148.5z"/>
	<path class="st0" d="M180.9,148.5c-5,0-6.6-2.1-6.6-7.4V127h-5v-3.5h5v-7.9l4.4-1.2v9.2h6.9v3.5h-6.9v12.5c0,4,0.8,5.1,3.5,5.1
		c1.1,0,2.2-0.1,3.1-0.4l0.4,3.7C184.5,148.3,182.5,148.5,180.9,148.5z"/>
	<path class="st0" d="M206,148.1c0-1.7,0-3.5,0.2-4.9h-0.1c-1.2,3-4.3,5.3-8.3,5.3c-4,0-6.8-2.7-6.8-6.6c0-5.3,5.4-8.4,14.8-8.4
		v-1.1c0-3.9-1.3-5.8-5.2-5.8c-2.3,0-5.3,0.8-7.4,1.8l-0.8-3.5c2.4-1,5.6-1.8,8.8-1.8c6.9,0,9,3.3,9,8.6v9.4c0,2.3,0,4.9,0.1,7.1
		H206z M205.8,136.6c-8,0-10.4,2.2-10.4,4.7c0,2.1,1.5,3.8,3.8,3.8c3.9,0,6.6-3.9,6.6-7.8V136.6z"/>
	<path class="st0" d="M235.5,148.1v-15.8c0-3.5-0.9-5.5-4.2-5.5c-4,0-7,4.1-7,9.6v11.7h-4.4v-24.5h4.3c0,1.5-0.1,3.7-0.4,5.2h0.1
		c1.4-3.4,4.4-5.6,8.6-5.6c5.6,0,7.4,3.5,7.4,7.8v17.1H235.5z"/>
	<path class="st0" d="M264.3,148.1c0-1.4,0.1-3.6,0.4-5l-0.1,0c-1.4,3.3-4.4,5.5-8.2,5.5c-6,0-9-4.4-9-11.6
		c0-8.6,4.9-13.8,12.7-13.8c1.3,0,2.7,0.1,4.1,0.2v-11.4h4.4v36H264.3z M264.2,127.3c-1.5-0.3-3-0.5-4.3-0.5c-4.7,0-7.8,2.8-7.8,9.9
		c0,5.3,1.7,8.3,5.4,8.3c4.4,0,6.7-5.2,6.7-9.5V127.3z"/>
	<path class="st0" d="M280.5,118.7c-1.6,0-3-1.2-3-2.9s1.3-2.9,3-2.9s3,1.3,3,2.9C283.4,117.4,282.1,118.7,280.5,118.7z
		 M278.3,148.1v-24.5h4.4v24.5H278.3z"/>
	<path class="st0" d="M307.9,148.1v-15.8c0-3.5-0.9-5.5-4.2-5.5c-4,0-7,4.1-7,9.6v11.7h-4.4v-24.5h4.3c0,1.5-0.1,3.7-0.4,5.2h0.1
		c1.4-3.4,4.4-5.6,8.6-5.6c5.6,0,7.4,3.5,7.4,7.8v17.1H307.9z"/>
	<path class="st0" d="M330,160.7c-6.3,0-10.3-2.6-10.3-7.4c0-2.9,1.9-5.3,4.1-6.5c-1.5-0.6-2.4-2-2.4-3.7c0-1.7,1.1-3.4,2.7-4.1
		c-2.2-1.3-3.6-3.6-3.6-6.8c0-4.9,3.7-9.2,10.4-9.2c1.3,0,2.2,0.1,3.5,0.4h8.3v3.5h-4c1.2,1,2,2.6,2,4.5c0,5-3.4,8.9-10.4,8.9
		c-1,0-1.7-0.1-2.6-0.3c-1,0.5-1.6,1.3-1.6,2.1c0,1.4,1.2,1.8,4.2,1.9l4.5,0.1c5.3,0.2,8.2,2.7,8.2,7.1
		C343,156.6,337.7,160.7,330,160.7z M333.5,148l-4.7-0.2c-0.4,0-1,0-1.4,0c-1.9,1.3-3.2,3-3.2,4.8c0,2.9,2.8,4.6,6.6,4.6
		c5,0,7.8-2.3,7.8-5.3C338.5,149.6,337,148.1,333.5,148z M330.7,126.4c-3.7,0-5.8,2.4-5.8,5.5c0,3.4,2,5.4,5.7,5.4
		c3.5,0,5.7-2,5.7-5.4C336.3,128.6,334.3,126.4,330.7,126.4z"/>
	<path class="st0" d="M361.9,148.1v-33.3h4.5v33.3H361.9z"/>
	<path class="st0" d="M391.7,148.1v-15.8c0-3.5-0.9-5.5-4.2-5.5c-4,0-7,4.1-7,9.6v11.7h-4.4v-24.5h4.3c0,1.5-0.1,3.7-0.4,5.2h0.1
		c1.4-3.4,4.4-5.6,8.6-5.6c5.6,0,7.4,3.5,7.4,7.8v17.1H391.7z"/>
	<path class="st0" d="M412.7,148.5c-5,0-6.6-2.1-6.6-7.4V127h-5v-3.5h5v-7.9l4.4-1.2v9.2h6.9v3.5h-6.9v12.5c0,4,0.8,5.1,3.5,5.1
		c1.1,0,2.2-0.1,3.1-0.4l0.4,3.7C416.2,148.3,414.3,148.5,412.7,148.5z"/>
	<path class="st0" d="M443.2,136h-16c-0.1,6.1,2.4,9,7.8,9c2.4,0,4.8-0.5,7-1.4l0.6,3.5c-2.5,1-5.4,1.5-8.5,1.5
		c-7.5,0-11.5-3.9-11.5-12.6c0-7.3,4.1-12.8,11.1-12.8c6.9,0,9.7,4.6,9.7,10.1C443.3,133.8,443.3,135,443.2,136z M433.3,126.5
		c-3.2,0-5.5,2.3-6.1,6.3h11.6C438.9,128.8,436.8,126.5,433.3,126.5z"/>
	<path class="st0" d="M463.1,127.5c-5.2-0.9-7.7,2.9-7.7,10.7v9.9H451v-24.5h4.3c0,1.5-0.1,3.8-0.5,5.8h0.1c1-3.4,3.6-6.8,8.4-6.3
		L463.1,127.5z"/>
	<path class="st0" d="M485,115.9c-1.1-0.4-2.4-0.5-3.6-0.5c-3.5,0-5,2-5,6.3v1.9h6.8v3.5h-6.8v21.1h-4.4V127h-5v-3.5h5v-1.8
		c0-6.8,3.3-10,9.4-10c1.4,0,2.7,0.1,4,0.4L485,115.9z"/>
	<path class="st0" d="M501.2,148.1c0-1.7,0-3.5,0.2-4.9h-0.1c-1.2,3-4.3,5.3-8.3,5.3c-4,0-6.8-2.7-6.8-6.6c0-5.3,5.4-8.4,14.8-8.4
		v-1.1c0-3.9-1.3-5.8-5.2-5.8c-2.3,0-5.3,0.8-7.4,1.8l-0.8-3.5c2.4-1,5.6-1.8,8.8-1.8c6.9,0,9,3.3,9,8.6v9.4c0,2.3,0,4.9,0.1,7.1
		H501.2z M501,136.6c-8,0-10.4,2.2-10.4,4.7c0,2.1,1.5,3.8,3.8,3.8c3.9,0,6.6-3.9,6.6-7.8V136.6z"/>
	<path class="st0" d="M523.7,148.5c-5.9,0-10.8-2.8-10.8-11.8c0-7.9,4-13.5,11.9-13.5c2.2,0,4.3,0.4,6,1l-0.8,3.8
		c-1.5-0.6-3.6-1.1-5.6-1.1c-4.4,0-6.9,3.8-6.9,9.2c0,4.8,1.5,8.6,7,8.6c2.1,0,4-0.4,5.7-1.2l0.7,3.7
		C528.9,148,526.2,148.5,523.7,148.5z"/>
	<path class="st0" d="M556.2,136h-16c-0.1,6.1,2.4,9,7.8,9c2.4,0,4.8-0.5,7-1.4l0.6,3.5c-2.5,1-5.4,1.5-8.5,1.5
		c-7.5,0-11.5-3.9-11.5-12.6c0-7.3,4.1-12.8,11.1-12.8c6.9,0,9.7,4.6,9.7,10.1C556.4,133.8,556.3,135,556.2,136z M546.4,126.5
		c-3.2,0-5.5,2.3-6.1,6.3h11.6C551.9,128.8,549.8,126.5,546.4,126.5z"/>
	<path class="st0" d="M568,148.5c-1.9,0-3.9-0.2-5.4-0.6l0.4-3.9c1.6,0.6,3.6,1,5.4,1c3.2,0,5.3-1.4,5.3-3.8
		c0-5.5-11.4-2.1-11.4-10.7c0-4.2,3.3-7.4,9.8-7.4c1.5,0,3.3,0.2,4.7,0.5l-0.3,3.7c-1.4-0.4-3.2-0.7-4.8-0.7c-3.3,0-4.8,1.4-4.8,3.5
		c0,5.4,11.5,2.3,11.5,10.7C578.4,145.2,574.5,148.5,568,148.5z"/>
</g>
<g>
	<path class="st0" d="M54.9,65.5c6.6,0,10.8-7.2,11.3-15.4h13.6v25.5H67.1c0-2.6,0.2-6,0.6-8.8c-3,5.8-8.8,10-16.9,10
		C38,76.7,31.6,67.1,31.6,52c0-0.7,0-1.3,0-1.9h14.2l0,0.4C45.9,60.4,48.7,65.5,54.9,65.5L54.9,65.5z"/>
	<path class="st0" d="M151.6,60.1l0-10h13.5l0,6.4c0,6.8,1.6,8.7,6.3,8.7c2.2,0,4.7-0.3,6.6-0.9v10.9c-3.4,0.8-7.3,1.4-11.1,1.4
		C155.2,76.6,151.6,72.4,151.6,60.1L151.6,60.1z"/>
	<path class="st0" d="M265.4,65.8c7.2,0,12.6-4.3,13.2-15.7h14.2c-1.2,16.2-10.7,26.3-27.7,26.3c-2.6,0-4.6-0.1-6.8-0.4v25.3h-13.6
		V50.1h13.6l0,14.8C260.4,65.5,262.6,65.8,265.4,65.8L265.4,65.8z"/>
	<polygon class="st0" points="304,75.6 304,50.1 317.6,50.1 317.6,75.6 304,75.6 	"/>
	<polygon class="st0" points="336.5,75.6 336.5,50.1 350,50.1 350,75.6 336.5,75.6 	"/>
	<path class="st0" d="M376.2,75.6l-9.4-25.5h14.4c0.7,2.5,1.3,5,1.9,7.5c0.6-2.2,1.4-4.8,2.2-7.5h13.6l-11.4,30.4
		c-6.3,16.5-11.8,21.5-23.9,21.5c-2.3,0-5.2-0.3-7.4-0.9l0.9-11.7c2.4,0.7,4.7,1.2,7.2,1.2c4.5,0,7.4-2,10.2-9.9L376.2,75.6
		L376.2,75.6z"/>
	<path class="st0" d="M434.3,60.5c0-6.3-9.5-5.9-15.9-10.4h27.1c1.9,2.2,3.1,5.1,3.1,9.2c0,10.4-9.1,17.4-23.6,17.4
		c-3.8,0-7.7-0.4-11.1-1l0.3-11.2c3.3,0.8,7.3,1.6,11.4,1.6C430.9,66.1,434.3,64,434.3,60.5L434.3,60.5z"/>
	<polygon class="st0" points="460.3,75.6 460.3,50.1 473.9,50.1 473.9,75.6 460.3,75.6 	"/>
	<path class="st0" d="M484.8,50.1H499c0.1,8.8,3.7,14.7,12.5,14.7c3.6,0,7.5-0.7,10.4-2.2l1.1,11.6c-3.6,1.4-8.8,2.4-14.5,2.4
		c-14.7,0-23.8-7.7-23.8-25.6L484.8,50.1L484.8,50.1z"/>
	<path class="st0" d="M552,60.5c0-6.3-9.5-5.9-15.9-10.4h27.1c1.9,2.2,3.1,5.1,3.1,9.2c0,10.4-9.1,17.4-23.6,17.4
		c-3.8,0-7.7-0.4-11.1-1l0.3-11.2c3.3,0.8,7.3,1.6,11.4,1.6C548.6,66.1,552,64,552,60.5L552,60.5z"/>
	<path class="st0" d="M91.2,62.7c0-5.3,2.2-9.5,6-12.7h38.1V62c0,4.3,0.1,9.2,0.3,13.6h-12.9c0-3.1,0.1-6.2,0.5-8.9
		c-2.7,5.8-9.1,10-17,10C96.7,76.6,91.2,71.2,91.2,62.7L91.2,62.7z M121.7,53.5v-1.3c-14.3,0-17.5,4.1-17.5,8.4
		c0,3.4,2.3,5.6,6.3,5.6C117.1,66.2,121.7,59.8,121.7,53.5L121.7,53.5z"/>
	<path class="st0" d="M185.7,62.7c0-5.3,2.2-9.5,6-12.7h38.1V62c0,4.3,0.1,9.2,0.3,13.6h-12.9c0-3.1,0.1-6.2,0.5-8.9
		c-2.7,5.8-9.1,10-17,10C191.2,76.6,185.7,71.2,185.7,62.7L185.7,62.7z M216.2,53.5v-1.3c-14.3,0-17.5,4.1-17.5,8.4
		c0,3.4,2.3,5.6,6.3,5.6C211.6,66.2,216.2,59.8,216.2,53.5L216.2,53.5z"/>
</g>
<g>
	<path class="st1" d="M55.5,34.9c-7,0-12.2,4-13.1,14.5H28.2C30,34.3,40,24.2,55.9,24.2c2.2,0,4.4,0.1,6.7,0.4V0.4h13.5l0,49H62.6
		l0-13.6C60.1,35.2,57.8,34.9,55.5,34.9L55.5,34.9z"/>
	<path class="st1" d="M131.6,42.4v7H98.5c5.1-2.4,11.9-3.6,19.6-3.6v-2.9c0-5.5-2.7-8.4-10.3-8.4c-4.8,0-11.2,1.6-15.6,4.1
		l-1.2-11.4c5.3-1.9,12.1-3.3,18.9-3.3C126.9,24,131.6,30.9,131.6,42.4L131.6,42.4z"/>
	<polygon class="st1" points="161.4,35.7 161.4,49.4 147.9,49.4 147.9,35.7 138.7,35.7 138.7,25.1 147.8,25.1 147.8,8.9 161.4,5.3 
		161.4,25.1 174.2,25.1 174.2,35.7 161.4,35.7 	"/>
	<path class="st1" d="M226.1,42.4v7H193c5.1-2.4,11.9-3.6,19.6-3.6v-2.9c0-5.5-2.7-8.4-10.3-8.4c-4.8,0-11.2,1.6-15.6,4.1l-1.2-11.4
		c5.3-1.9,12.1-3.3,18.9-3.3C221.3,24,226.1,30.9,226.1,42.4L226.1,42.4z"/>
	<path class="st1" d="M266,35.2c-6.3,0-10.3,6.4-11.2,14.2H241V25.1h12.6c0,2.6-0.1,6.1-0.5,8.8c3.2-6.2,8.8-9.9,16.8-9.9
		c12.5,0,19.3,9,19.3,24.7l0,0.7H275C274.8,40,271.9,35.2,266,35.2L266,35.2z"/>
	<path class="st1" d="M326.3,35.3c-6.1,0-11.1,6.2-12.1,14.1h-13.8v-49H314V23c0,3.2-0.2,7.7-1,10.7c3.3-5.8,9.4-9.8,17.5-9.8
		c11.9,0,15.7,7.7,15.7,16.9v8.5h-13.5v-5.2C332.8,38.6,331.3,35.3,326.3,35.3L326.3,35.3z"/>
	<path class="st1" d="M375.3,45.3c0.5,1.3,0.9,2.7,1.3,4.1H362l-8.9-24.3h15.1L375.3,45.3L375.3,45.3z"/>
	<path class="st1" d="M423.3,39.7c0,5.4,8.4,5.9,14.8,9.7h-26.4c-1.5-2.1-2.4-4.8-2.4-8.5c0-9.2,7.5-16.9,22.4-16.9
		c3.1,0,6.5,0.4,9.7,1L441,35.7c-3-0.9-6.5-1.4-9.8-1.4C425.9,34.3,423.3,36.4,423.3,39.7L423.3,39.7z"/>
	<path class="st1" d="M471.9,10c0,4.6-3.8,8.3-8.5,8.3c-4.7,0-8.4-3.7-8.4-8.3c0-4.5,3.7-8.2,8.4-8.2C468.1,1.9,471.9,5.5,471.9,10
		L471.9,10z"/>
	<polygon class="st1" points="470.2,25.1 470.2,49.4 456.6,49.4 456.6,25.1 470.2,25.1 	"/>
	<path class="st1" d="M508.3,35.6c-7.9,0-12.2,5.3-12.9,13.8h-14.2c1.3-14.5,10-25.2,27.1-25.2c3.6,0,7.4,0.5,10.8,1.5l-1.4,11.8
		C515,36.4,511.7,35.6,508.3,35.6L508.3,35.6z"/>
	<path class="st1" d="M541,39.7c0,5.4,8.4,5.9,14.8,9.7h-26.4c-1.5-2.1-2.4-4.8-2.4-8.5c0-9.2,7.5-16.9,22.4-16.9
		c3.1,0,6.5,0.4,9.7,1l-0.4,10.7c-3-0.9-6.5-1.4-9.8-1.4C543.6,34.3,541,36.4,541,39.7L541,39.7z"/>
	<path class="st1" d="M405.4,25.1l-9.1,24.3h-13.8c0.7-2.2,1.4-4.4,2.1-6.3l6.3-18H405.4L405.4,25.1z"/>
</g>
<rect x="0" y="48.8" class="st2" width="590.2" height="4"/>
</svg>
