<svg width="102" height="92" viewBox="0 0 102 92" fill="none" xmlns="http://www.w3.org/2000/svg">
<path d="M52.1879 0.0830078H46.5274L7.49351 29.467C3.9773 32.1143 1.60946 37.1868 0.979386 43.3809C0.389964 49.2415 1.58913 54.9303 4.10942 58.2345L4.26185 58.4366H8.91625L8.29634 57.6283C3.44886 51.2624 4.16023 38.0356 9.58697 33.2359L52.1879 0.0830078ZM97.8376 34.6203L97.6851 34.4182H93.0307L93.6506 35.2265C98.4981 41.5924 97.7868 54.8192 92.3702 59.6087L49.7286 91.7512H55.4196L94.4535 63.3878C97.9697 60.7404 100.338 55.668 100.968 49.4739C101.557 43.6133 100.358 37.9244 97.8376 34.6203Z" fill="#00ADEE"/>
<path d="M91.2218 34.4283H54.2102L98.5896 0.0830078H55.2671L10.6439 34.4485C9.34307 35.4286 7.55448 39.0966 6.93457 43.3203C6.36547 47.2004 6.52807 52.9297 10.5626 58.2244L10.715 58.4265H47.6961L3.3269 91.7613H46.6799L91.3031 58.4063C93.7828 56.5471 98.6811 44.2196 91.3844 34.6304L91.232 34.4283H91.2218ZM59.9723 46.4425C59.9723 51.0906 56.1716 54.8697 51.4969 54.8697C46.8221 54.8697 43.0214 51.0906 43.0214 46.4425C43.0214 41.7945 46.8221 38.0154 51.4969 38.0154C56.1716 38.0154 59.9723 41.7945 59.9723 46.4425Z" fill="#00ADEE"/>
</svg>
